<svg width="1920" height="403" viewBox="0 0 1920 403" fill="none" xmlns="http://www.w3.org/2000/svg">
<mask id="mask0_1_5410" style="mask-type:alpha" maskUnits="userSpaceOnUse" x="0" y="0" width="1920" height="404">
<rect width="1920" height="404" fill="#222220"/>
</mask>
<g mask="url(#mask0_1_5410)">
<g style="mix-blend-mode:screen">
<g style="mix-blend-mode:screen">
<path d="M1894.41 30.1166L1893.91 29.8752H1893.63H1893.26L1893 29.9867L1892.8 30.1352H1892.65L1892.45 30.2281C1892.03 30.408 1891.68 30.697 1891.42 31.0636L1891.33 31.3608V31.7879L1891.42 32.085L1891.78 32.5492L1892.04 32.7349L1892.45 32.8463H1892.76H1893.02H1893.11L1893.71 32.6606C1894.04 32.5292 1894.33 32.3053 1894.53 32.0155C1894.74 31.7258 1894.86 31.3824 1894.88 31.0265V30.748L1894.67 30.4137L1894.41 30.1166Z" fill="#53240B"/>
</g>
<g style="mix-blend-mode:screen">
<path d="M1842.42 10.0618L1842.27 10.3032V10.4146V10.5817V11.1388V11.3245V11.4359C1842.38 11.6654 1842.56 11.8585 1842.77 11.9932C1842.99 12.1279 1843.24 12.1986 1843.5 12.1973C1843.76 12.1996 1844.02 12.1321 1844.25 12.0016C1844.47 11.8711 1844.66 11.6823 1844.8 11.4545C1844.91 11.2612 1844.99 11.0422 1845 10.8159C1845.02 10.5897 1844.98 10.3628 1844.89 10.1547C1844.82 9.97477 1844.71 9.81354 1844.57 9.68436C1844.43 9.55517 1844.26 9.46177 1844.07 9.41189C1843.76 9.29916 1843.43 9.30305 1843.12 9.42283C1842.82 9.54262 1842.57 9.76996 1842.42 10.0618Z" fill="#9F5504"/>
</g>
<g style="mix-blend-mode:screen">
<path d="M1849.79 8.09385V8.35382V8.55808C1849.86 8.88283 1850.06 9.16706 1850.34 9.35071C1850.61 9.53436 1850.95 9.60304 1851.28 9.54225H1851.44L1851.65 9.43084L1851.78 9.31943L1851.93 9.20802L1852.11 9.02232V8.87376L1852.26 8.53953V8.39097V8.001C1852.22 7.80935 1852.14 7.6284 1852.02 7.46891C1851.91 7.30941 1851.76 7.17463 1851.59 7.07254C1851.42 6.97939 1851.23 6.92305 1851.04 6.90706C1850.84 6.89108 1850.64 6.9158 1850.46 6.97968L1850.14 7.10968L1850 7.22109L1849.81 7.42536V7.59247L1849.68 8.001L1849.79 8.09385Z" fill="#E3D1BD"/>
</g>
<g style="mix-blend-mode:screen">
<path d="M1893.84 23.2088C1893.95 23.3948 1894.1 23.5551 1894.28 23.6798C1894.46 23.8044 1894.66 23.8906 1894.88 23.933H1895.06H1895.32H1895.51L1895.86 23.6915L1895.99 23.5616L1896.16 23.3573V23.1902C1896.21 22.9391 1896.21 22.6799 1896.16 22.4288V22.1132V21.8903L1895.95 21.4447L1895.82 21.259L1895.56 21.0547H1895.36C1895.17 20.9989 1894.97 20.9827 1894.77 21.0071C1894.57 21.0315 1894.38 21.096 1894.2 21.1966C1894.03 21.2973 1893.88 21.432 1893.76 21.5927C1893.64 21.7534 1893.55 21.9368 1893.5 22.1317C1893.49 22.5186 1893.61 22.8993 1893.84 23.2088Z" fill="#D59C38"/>
</g>
<g style="mix-blend-mode:screen">
<path d="M1920.54 66.1411L1920.34 66.2339H1920.19C1919.89 66.5129 1919.71 66.8886 1919.67 67.2924C1919.65 67.6427 1919.76 67.9876 1919.98 68.2615C1920.2 68.5354 1920.51 68.7192 1920.86 68.7779H1921.25H1921.51H1921.65H1921.75C1921.89 68.6515 1922.01 68.4977 1922.09 68.3255C1922.17 68.1532 1922.22 67.9661 1922.23 67.7752C1922.24 67.5043 1922.19 67.2346 1922.06 66.9934C1921.94 66.7521 1921.75 66.5478 1921.52 66.4011H1921.38H1921.15H1920.99H1920.61L1920.54 66.1411Z" fill="#E7B851"/>
</g>
<g style="mix-blend-mode:screen">
<path d="M1917.98 15.02L1918.09 15.2614L1918.2 15.41C1918.35 15.5687 1918.53 15.6938 1918.73 15.777C1918.94 15.8602 1919.15 15.8997 1919.37 15.8928C1919.58 15.8761 1919.78 15.8162 1919.96 15.7171C1920.14 15.6179 1920.3 15.4817 1920.43 15.3171L1920.52 15.15V14.8715V14.6858V14.2773V14.1101L1920.39 13.8873L1920.28 13.7387L1919.98 13.4788H1919.8H1919.54H1919.35H1918.93H1918.74L1918.5 13.5902L1918.35 13.7202L1918.09 14.0358L1918 14.1844L1917.9 14.4258V15.0386L1917.98 15.02Z" fill="#F9E59F"/>
</g>
<g style="mix-blend-mode:screen">
<path d="M1883.01 9.3002L1883.18 9.17023L1883.36 8.9474L1883.48 8.7617C1883.6 8.58554 1883.68 8.3804 1883.7 8.16585C1883.72 7.95131 1883.69 7.73449 1883.61 7.53612L1883.49 7.35044L1883.27 7.14618L1883.11 7.05333L1882.59 6.86763H1882.49C1882.18 6.85404 1881.88 6.93855 1881.62 7.10904L1881.47 7.22045L1881.36 7.38756L1881.23 7.64753V7.83324V8.44603V8.68744L1881.34 8.87311C1881.52 9.13016 1881.79 9.31406 1882.1 9.39223C1882.4 9.4704 1882.73 9.43779 1883.01 9.3002Z" fill="#D6BDA1"/>
</g>
<g style="mix-blend-mode:screen">
<path d="M1901.66 22.9491V23.0976V23.2833V23.8033V23.9518C1901.72 24.1737 1901.84 24.3737 1902.01 24.5275L1902.18 24.6389L1902.44 24.7317H1902.64H1903.14H1903.29C1903.52 24.6678 1903.74 24.5391 1903.9 24.3603V24.1932L1904.01 23.9332V23.729V23.2276V22.9491L1904.11 22.7819L1904.27 22.392V22.2063V21.9277V21.7421C1904.1 21.3618 1903.82 21.044 1903.46 20.8322L1903.16 20.665H1903.01H1902.6L1902.23 20.7579H1902.08L1901.88 20.8879L1901.77 20.9993C1901.61 21.1847 1901.5 21.402 1901.43 21.6361C1901.37 21.8702 1901.36 22.1155 1901.4 22.3548C1901.43 22.5708 1901.52 22.7746 1901.66 22.9491Z" fill="#EADECF"/>
</g>
<g style="mix-blend-mode:screen">
<path d="M1881.49 45.6593V45.9006V46.1049C1881.63 46.406 1881.88 46.6428 1882.18 46.7671C1882.49 46.8914 1882.83 46.8936 1883.14 46.7734L1883.29 46.6806L1883.48 46.532L1883.59 46.402L1883.72 46.272L1883.87 46.0492V45.8821V45.5293V45.3807V45.1579V45.0093C1883.79 44.8251 1883.67 44.6598 1883.52 44.5251C1883.38 44.3904 1883.2 44.2895 1883.01 44.2294C1882.83 44.1678 1882.63 44.1476 1882.44 44.17C1882.25 44.1925 1882.06 44.2571 1881.9 44.3594L1881.6 44.5451L1881.49 44.6936L1881.36 44.9165V45.1022V45.5107L1881.49 45.6593Z" fill="#F9E59F"/>
</g>
<g style="mix-blend-mode:screen">
<path d="M1889.77 30.0979L1889.34 29.8936H1889.18H1888.99V29.9865L1888.84 29.8751C1888.5 29.8548 1888.16 29.946 1887.88 30.135C1887.66 30.3002 1887.49 30.5306 1887.41 30.7938C1887.33 31.057 1887.33 31.3397 1887.41 31.602V31.7691L1887.58 31.9734L1887.73 32.1034L1888.1 32.3077H1888.23H1888.43H1888.56C1888.96 32.3653 1889.35 32.2723 1889.68 32.0477C1889.9 31.8892 1890.07 31.665 1890.17 31.4058C1890.26 31.1465 1890.27 30.8648 1890.2 30.5993L1890.09 30.4136L1889.88 30.1722L1889.77 30.0979Z" fill="#F9F6D2"/>
</g>
<g style="mix-blend-mode:screen">
<path d="M1899.84 26.3102H1900.06H1900.28C1900.49 26.351 1900.71 26.3421 1900.92 26.284C1901.12 26.226 1901.31 26.1205 1901.47 25.9759L1901.71 25.6788V25.5674V25.4003V25.2889V25.0103V24.8061V24.6947C1901.64 24.4877 1901.52 24.3023 1901.36 24.1561C1901.19 24.0098 1901 23.9075 1900.78 23.859C1900.53 23.8036 1900.26 23.8101 1900 23.8779C1899.75 23.9456 1899.51 24.0728 1899.32 24.249C1899.16 24.3881 1899.03 24.5637 1898.95 24.7609C1898.88 24.958 1898.85 25.171 1898.87 25.3817V25.4931V25.6417V25.7531L1899.06 26.0317L1899.24 26.1802L1899.84 26.3102Z" fill="#8C4703"/>
</g>
<g style="mix-blend-mode:screen">
<path d="M1867.95 4.78821L1867.64 4.63965H1867.27H1867.08L1866.54 4.80677L1866.32 4.97391L1866.08 5.271L1865.97 5.51241V5.60526C1865.91 5.80178 1865.89 6.00828 1865.92 6.21147C1865.94 6.41467 1866.01 6.61005 1866.12 6.78499C1866.23 6.95994 1866.37 7.11057 1866.54 7.22721C1866.71 7.34385 1866.9 7.4239 1867.1 7.46219H1867.28H1867.53H1867.69L1868.03 7.27648L1868.18 7.16507L1868.34 6.97937V6.81225C1868.52 6.4806 1868.57 6.09973 1868.5 5.732C1868.43 5.36427 1868.24 5.03149 1867.95 4.78821Z" fill="#EADECF"/>
</g>
<g style="mix-blend-mode:screen">
<path d="M1907.34 50.4503H1907.54H1907.84H1908.04H1908.16C1908.37 50.4422 1908.59 50.3803 1908.77 50.2702C1908.96 50.16 1909.12 50.0049 1909.23 49.8189V49.6146V49.3361V49.1319L1909.05 48.6119V48.4448C1908.87 48.191 1908.61 47.9969 1908.32 47.8877H1908.14H1907.93H1907.65H1907.47L1907.12 48.1291L1906.99 48.2405L1906.84 48.4448V48.649C1906.75 48.8001 1906.7 48.9667 1906.67 49.1391C1906.65 49.3116 1906.67 49.4865 1906.71 49.6539C1906.76 49.8213 1906.84 49.9778 1906.95 50.1145C1907.05 50.2512 1907.19 50.3653 1907.34 50.4503Z" fill="#DFCBB3"/>
</g>
<g style="mix-blend-mode:screen">
<path d="M1896.4 16.2082V16.4311V16.8025V17.0439L1896.62 17.5267L1896.79 17.7124L1897.05 17.8981V18.0466V18.3623L1897.16 18.5666L1897.46 18.9194H1897.55C1897.74 19.1371 1898.01 19.2814 1898.29 19.3279C1898.59 19.3785 1898.89 19.322 1899.15 19.1687C1899.4 19.0153 1899.59 18.7753 1899.69 18.4923V18.3251V17.9166L1899.56 17.5267V17.3967L1899.45 17.2667L1899.71 17.0624C1899.91 16.8901 1900.07 16.6767 1900.18 16.4365C1900.29 16.1963 1900.35 15.9348 1900.36 15.6697V15.4098L1900.15 15.0941L1899.95 14.9084L1899.46 14.667H1899.19H1898.81L1898.57 14.7598C1898.41 14.8581 1898.23 14.939 1898.05 15.0013C1897.38 15.1995 1896.79 15.6262 1896.4 16.2082Z" fill="#EEE3D8"/>
</g>
<g style="mix-blend-mode:screen">
<path d="M1906.99 29.541L1906.73 29.671L1906.58 29.7824C1906.39 29.9617 1906.25 30.1851 1906.17 30.4324C1906 30.6791 1905.93 30.9781 1905.96 31.2747C1905.99 31.5713 1906.13 31.8457 1906.35 32.0479C1906.64 32.3109 1907.01 32.4569 1907.39 32.4564C1907.56 32.4581 1907.72 32.4261 1907.88 32.3622C1908.03 32.2984 1908.17 32.2041 1908.28 32.0851L1908.43 31.7508V31.5651V31.4536V31.2123V31.0451V30.5438C1908.42 30.3142 1908.35 30.0917 1908.23 29.8938L1908.04 29.7267L1907.73 29.5596H1907.49H1907.19L1906.99 29.541Z" fill="#D59C38"/>
</g>
<g style="mix-blend-mode:screen">
<path d="M1912.2 127.104L1911.91 127.587V127.847V128.237V128.496L1912.02 128.719V128.868V129.072C1912.16 129.503 1912.42 129.887 1912.76 130.186L1913.04 130.298H1913.47H1913.78L1914.28 130.001L1914.47 129.759L1914.64 129.351V129.054V128.775V128.682C1914.6 128.474 1914.55 128.269 1914.49 128.069C1914.39 127.729 1914.19 127.424 1913.93 127.19C1913.66 126.957 1913.33 126.804 1912.98 126.751H1912.7L1912.35 126.918L1912.2 127.104Z" fill="#F9D46B"/>
</g>
<g style="mix-blend-mode:screen">
<path d="M1878.22 14.0914L1878.11 14.2957V14.4628C1878.05 14.8595 1878.15 15.2632 1878.37 15.5955C1878.57 15.8825 1878.87 16.0847 1879.22 16.1634C1879.56 16.2422 1879.92 16.1921 1880.23 16.0226L1880.34 15.9112L1880.63 15.5212V15.3727V15.2613C1880.7 14.8845 1880.61 14.4981 1880.39 14.1842C1880.24 13.9611 1880.02 13.7846 1879.78 13.6734C1879.53 13.5622 1879.25 13.5205 1878.98 13.5529H1878.82L1878.78 13.6643L1878.65 13.7572L1878.37 13.9985L1878.22 14.0914Z" fill="#E7D8C6"/>
</g>
<g style="mix-blend-mode:screen">
<path d="M1919.72 77.4684L1919.89 77.8398L1920 77.9884L1920.19 78.174L1920.34 78.2669L1920.73 78.434H1920.89H1921.15H1921.34C1921.54 78.3699 1921.73 78.2629 1921.89 78.1202C1922.05 77.9775 1922.17 77.8025 1922.26 77.607C1922.34 77.4115 1922.38 77.2001 1922.38 76.9871C1922.37 76.7742 1922.32 76.5647 1922.23 76.3728V76.2614L1922.1 76.1128L1921.9 75.9457L1921.73 75.8528L1921.34 75.7229H1920.91H1920.73L1920.35 75.89L1920.21 76.0014L1920.02 76.2057L1919.91 76.3542L1919.63 76.7999V76.9856V77.2641L1919.72 77.4684Z" fill="#9F5504"/>
</g>
<g style="mix-blend-mode:screen">
<path d="M1916.68 132.285V132.081V131.765C1916.67 131.548 1916.62 131.336 1916.52 131.143C1916.42 130.951 1916.27 130.782 1916.1 130.651C1915.86 130.45 1915.56 130.331 1915.24 130.307C1914.92 130.284 1914.61 130.359 1914.34 130.521C1914.07 130.683 1913.85 130.926 1913.72 131.215C1913.59 131.504 1913.55 131.825 1913.61 132.136V132.341L1913.73 132.526V132.619L1914.15 132.953L1914.32 133.046H1914.58H1914.77H1915.21H1915.4L1915.62 132.916L1915.77 132.786L1916.1 132.359L1916.68 132.285Z" fill="#793903"/>
</g>
<g style="mix-blend-mode:screen">
<path d="M1909.68 111.023L1909.77 110.912V110.745V110.615V110.281V109.928V109.798C1909.55 109.392 1909.2 109.071 1908.78 108.886C1908.35 108.701 1907.88 108.662 1907.43 108.776L1907.15 108.944L1906.86 109.296L1906.74 109.612V110.225L1906.86 110.522L1907.12 110.875L1907.32 111.023L1907.49 111.116C1908.49 111.599 1909.18 111.58 1909.68 111.023Z" fill="#F9E59F"/>
</g>
<g style="mix-blend-mode:screen">
<path d="M1920.99 41.9267V41.6853H1920.89H1921.01C1921.07 41.4169 1921.07 41.1366 1921.01 40.8682L1920.88 40.5711L1920.76 40.4412L1920.6 40.2926H1920.47L1920.11 40.144L1919.48 40.404L1919.2 41.0725L1919.39 41.4996V41.611L1919.52 42.2981L1920.11 42.688L1920.8 42.5394L1921.02 42.2052L1920.99 41.9267Z" fill="#F9F6D2"/>
</g>
<g style="mix-blend-mode:screen">
<path d="M1920.34 107.996L1919.85 108.293L1919.67 108.498L1919.5 108.832V109.11V109.352V109.5V109.723C1919.43 110.168 1919.48 110.624 1919.65 111.041L1919.85 111.283L1920.21 111.506H1920.52H1921.1L1921.39 111.394L1921.71 111.116L1921.86 110.837V110.577V110.484C1921.92 110.284 1921.96 110.079 1921.99 109.872C1922.06 109.523 1922.02 109.164 1921.89 108.835C1921.76 108.506 1921.53 108.221 1921.25 108.015H1920.99H1920.6L1920.34 107.996Z" fill="#3B1703"/>
</g>
<path d="M1724.29 -480.509L1691.46 -447.683L2365.06 225.91L2397.89 193.084L1724.29 -480.509Z" fill="url(#paint0_linear_1_5410)"/>
<path d="M1697.37 -453.582L1691.46 -447.673L2365.06 225.919L2370.97 220.011L1697.37 -453.582Z" fill="url(#paint1_linear_1_5410)"/>
<path d="M1540.65 -364.592L1538.6 -362.544L2254.56 353.408L2256.61 351.36L1540.65 -364.592Z" fill="url(#paint2_linear_1_5410)"/>
<path d="M1637.22 -464.854L1635.18 -462.805L2351.13 253.146L2353.18 251.098L1637.22 -464.854Z" fill="url(#paint3_linear_1_5410)"/>
<path d="M1753.29 -528L1751.24 -525.952L2467.2 190L2469.24 187.952L1753.29 -528Z" fill="url(#paint4_linear_1_5410)"/>
<path d="M1504.46 -365.846L1502.41 -363.797L2218.36 352.154L2220.41 350.106L1504.46 -365.846Z" fill="url(#paint5_linear_1_5410)"/>
<path d="M1430.05 -364.169L1428 -362.12L2143.96 353.831L2146 351.783L1430.05 -364.169Z" fill="url(#paint6_linear_1_5410)"/>
<path d="M1679.43 -512.663L1677.38 -510.615L2393.34 205.337L2395.39 203.289L1679.43 -512.663Z" fill="url(#paint7_linear_1_5410)"/>
<g style="mix-blend-mode:screen">
<path d="M2002.39 -54.7263C2089.41 32.2893 2154.07 108.683 2146.83 115.962C2139.59 123.242 2063.15 58.5648 1976.14 -28.4508C1889.12 -115.466 1824.44 -191.86 1831.7 -199.14C1838.97 -206.419 1915.38 -141.742 2002.39 -54.7263Z" fill="url(#paint8_radial_1_5410)"/>
</g>
<g style="mix-blend-mode:screen">
<path d="M1996.64 -48.9697C2045.57 -0.058197 2081.93 42.9111 2077.84 47.0892C2073.76 51.2673 2030.81 14.8158 1981.88 -34.1143C1932.94 -83.0443 1896.6 -126.088 1900.69 -130.173C1904.78 -134.258 1947.73 -97.8997 1996.64 -48.9697Z" fill="url(#paint9_radial_1_5410)"/>
</g>
<g style="mix-blend-mode:screen">
<path d="M1984.75 58.5464C2071.77 145.562 2136.43 221.956 2129.19 229.235C2121.94 236.514 2045.51 171.838 1958.5 84.8219C1871.48 -2.19373 1806.8 -78.5878 1814.06 -85.8669C1821.32 -93.1461 1897.74 -28.4692 1984.75 58.5464Z" fill="url(#paint10_radial_1_5410)"/>
</g>
<g style="mix-blend-mode:screen">
<path d="M1979.05 64.3028C2027.93 113.214 2064.29 156.184 2060.2 160.362C2056.12 164.54 2013.16 127.995 1964.2 79.0654C1915.23 30.1353 1878.96 -12.8154 1883.05 -16.9007C1887.13 -20.9859 1930.09 15.3727 1979.05 64.3028Z" fill="url(#paint11_radial_1_5410)"/>
</g>
</g>
</g>
<defs>
<linearGradient id="paint0_linear_1_5410" x1="1646.32" y1="-523.026" x2="2455.16" y2="280.564" gradientUnits="userSpaceOnUse">
<stop stop-color="#F4EFEA"/>
<stop offset="0.06" stop-color="#F3EDE8"/>
<stop offset="0.53" stop-color="#EEE3D8"/>
<stop offset="0.99" stop-color="#E3D1BD"/>
</linearGradient>
<linearGradient id="paint1_linear_1_5410" x1="2287.93" y1="142.882" x2="1879.91" y2="-265.136" gradientUnits="userSpaceOnUse">
<stop stop-color="#F4E0AE"/>
<stop offset="0.2" stop-color="#EACD8C"/>
<stop offset="0.32" stop-color="#E5C47C"/>
<stop offset="0.36" stop-color="#E0BE77"/>
<stop offset="0.42" stop-color="#D2AD69"/>
<stop offset="0.5" stop-color="#BC9152"/>
<stop offset="0.54" stop-color="#AA7A40"/>
<stop offset="0.62" stop-color="#C09657"/>
<stop offset="0.72" stop-color="#D4AF6B"/>
<stop offset="0.8" stop-color="#E1BF78"/>
<stop offset="0.87" stop-color="#E5C47C"/>
</linearGradient>
<linearGradient id="paint2_linear_1_5410" x1="2170.58" y1="267.22" x2="1736.9" y2="-166.456" gradientUnits="userSpaceOnUse">
<stop stop-color="#F4E0AE"/>
<stop offset="0.2" stop-color="#EACD8C"/>
<stop offset="0.32" stop-color="#E5C47C"/>
<stop offset="0.36" stop-color="#E0BE77"/>
<stop offset="0.42" stop-color="#D2AD69"/>
<stop offset="0.5" stop-color="#BC9152"/>
<stop offset="0.54" stop-color="#AA7A40"/>
<stop offset="0.62" stop-color="#C09657"/>
<stop offset="0.72" stop-color="#D4AF6B"/>
<stop offset="0.8" stop-color="#E1BF78"/>
<stop offset="0.87" stop-color="#E5C47C"/>
</linearGradient>
<linearGradient id="paint3_linear_1_5410" x1="2267.15" y1="166.958" x2="1833.48" y2="-266.718" gradientUnits="userSpaceOnUse">
<stop stop-color="#F4E0AE"/>
<stop offset="0.2" stop-color="#EACD8C"/>
<stop offset="0.32" stop-color="#E5C47C"/>
<stop offset="0.36" stop-color="#E0BE77"/>
<stop offset="0.42" stop-color="#D2AD69"/>
<stop offset="0.5" stop-color="#BC9152"/>
<stop offset="0.54" stop-color="#AA7A40"/>
<stop offset="0.62" stop-color="#C09657"/>
<stop offset="0.72" stop-color="#D4AF6B"/>
<stop offset="0.8" stop-color="#E1BF78"/>
<stop offset="0.87" stop-color="#E5C47C"/>
</linearGradient>
<linearGradient id="paint4_linear_1_5410" x1="2383.2" y1="103.799" x2="1949.53" y2="-329.877" gradientUnits="userSpaceOnUse">
<stop stop-color="#F4E0AE"/>
<stop offset="0.2" stop-color="#EACD8C"/>
<stop offset="0.32" stop-color="#E5C47C"/>
<stop offset="0.36" stop-color="#E0BE77"/>
<stop offset="0.42" stop-color="#D2AD69"/>
<stop offset="0.5" stop-color="#BC9152"/>
<stop offset="0.54" stop-color="#AA7A40"/>
<stop offset="0.62" stop-color="#C09657"/>
<stop offset="0.72" stop-color="#D4AF6B"/>
<stop offset="0.8" stop-color="#E1BF78"/>
<stop offset="0.87" stop-color="#E5C47C"/>
</linearGradient>
<linearGradient id="paint5_linear_1_5410" x1="2134.28" y1="266.018" x2="1700.6" y2="-167.657" gradientUnits="userSpaceOnUse">
<stop stop-color="#F4E0AE"/>
<stop offset="0.2" stop-color="#EACD8C"/>
<stop offset="0.32" stop-color="#E5C47C"/>
<stop offset="0.36" stop-color="#E0BE77"/>
<stop offset="0.42" stop-color="#D2AD69"/>
<stop offset="0.5" stop-color="#BC9152"/>
<stop offset="0.54" stop-color="#AA7A40"/>
<stop offset="0.62" stop-color="#C09657"/>
<stop offset="0.72" stop-color="#D4AF6B"/>
<stop offset="0.8" stop-color="#E1BF78"/>
<stop offset="0.87" stop-color="#E5C47C"/>
</linearGradient>
<linearGradient id="paint6_linear_1_5410" x1="2059.96" y1="267.656" x2="1626.29" y2="-166.02" gradientUnits="userSpaceOnUse">
<stop stop-color="#F4E0AE"/>
<stop offset="0.2" stop-color="#EACD8C"/>
<stop offset="0.32" stop-color="#E5C47C"/>
<stop offset="0.36" stop-color="#E0BE77"/>
<stop offset="0.42" stop-color="#D2AD69"/>
<stop offset="0.5" stop-color="#BC9152"/>
<stop offset="0.54" stop-color="#AA7A40"/>
<stop offset="0.62" stop-color="#C09657"/>
<stop offset="0.72" stop-color="#D4AF6B"/>
<stop offset="0.8" stop-color="#E1BF78"/>
<stop offset="0.87" stop-color="#E5C47C"/>
</linearGradient>
<linearGradient id="paint7_linear_1_5410" x1="2309.24" y1="119.214" x2="1875.56" y2="-314.461" gradientUnits="userSpaceOnUse">
<stop stop-color="#F4E0AE"/>
<stop offset="0.2" stop-color="#EACD8C"/>
<stop offset="0.32" stop-color="#E5C47C"/>
<stop offset="0.36" stop-color="#E0BE77"/>
<stop offset="0.42" stop-color="#D2AD69"/>
<stop offset="0.5" stop-color="#BC9152"/>
<stop offset="0.54" stop-color="#AA7A40"/>
<stop offset="0.62" stop-color="#C09657"/>
<stop offset="0.72" stop-color="#D4AF6B"/>
<stop offset="0.8" stop-color="#E1BF78"/>
<stop offset="0.87" stop-color="#E5C47C"/>
</linearGradient>
<radialGradient id="paint8_radial_1_5410" cx="0" cy="0" r="1" gradientUnits="userSpaceOnUse" gradientTransform="translate(1931.94 15.7676) rotate(-44.9998) scale(17.831 222.888)">
<stop stop-color="#8C4703"/>
<stop offset="0.09" stop-color="#7B3F03"/>
<stop offset="0.49" stop-color="#391D01"/>
<stop offset="0.78" stop-color="#100800"/>
<stop offset="0.93"/>
</radialGradient>
<radialGradient id="paint9_radial_1_5410" cx="0" cy="0" r="1" gradientUnits="userSpaceOnUse" gradientTransform="translate(2085.42 -150.994) rotate(-44.9998) scale(11.1472 124.848)">
<stop stop-color="#F9EEB8"/>
<stop offset="0.04" stop-color="#EBE1AE"/>
<stop offset="0.23" stop-color="#A59D7A"/>
<stop offset="0.41" stop-color="#6A654E"/>
<stop offset="0.58" stop-color="#3C3A2D"/>
<stop offset="0.72" stop-color="#1B1A14"/>
<stop offset="0.85" stop-color="#070705"/>
<stop offset="0.93"/>
</radialGradient>
<radialGradient id="paint10_radial_1_5410" cx="0" cy="0" r="1" gradientUnits="userSpaceOnUse" gradientTransform="translate(1916.89 126.454) rotate(-44.9998) scale(17.831 222.888)">
<stop stop-color="#8C4703"/>
<stop offset="0.09" stop-color="#7B3F03"/>
<stop offset="0.49" stop-color="#391D01"/>
<stop offset="0.78" stop-color="#100800"/>
<stop offset="0.93"/>
</radialGradient>
<radialGradient id="paint11_radial_1_5410" cx="0" cy="0" r="1" gradientUnits="userSpaceOnUse" gradientTransform="translate(2063.13 -33.444) rotate(-44.9998) scale(11.1472 124.848)">
<stop stop-color="#F9EEB8"/>
<stop offset="0.04" stop-color="#EBE1AE"/>
<stop offset="0.23" stop-color="#A59D7A"/>
<stop offset="0.41" stop-color="#6A654E"/>
<stop offset="0.58" stop-color="#3C3A2D"/>
<stop offset="0.72" stop-color="#1B1A14"/>
<stop offset="0.85" stop-color="#070705"/>
<stop offset="0.93"/>
</radialGradient>
</defs>
</svg>
